**ABCDEFGHIJKLMNOPQRSTUVWXYZabcdefghijklmnopqrstuvwxyz**************************
**PARASOLID !"#$%&'()*+,-./:;<=>?@[\]^_`{|}~0123456789**************************
**PART1;
MC=AMD64;
MC_MODEL=Intel64 Family 6 Model 154 Stepping 3, GenuineIntel;
MC_ID=unknown;
OS=Windows_NT;
OS_RELEASE=unknown;
FRU=Parasolid Version 34.1, build 247, 10- 7-2022;
APPL=SOLIDWORKS 2023-2023096;
SITE=;
USER=unknown;
FORMAT=text;
GUISE=transmit;
KEY=makeProjectedPlanarWire;
FILE=makeProjectedPlanarWire.x_t;
DATE=Mon Oct 14 21:19:12 2024;
**PART2;
SCH=SCH_3401247_34101;
USFLD_SIZE=0;
**PART3;
**END_OF_HEADER*****************************************************************
T51 : TRANSMIT FILE created by modeller version 340124723 SCH_3401247_34101_1300
6231 0 12 36 CCCI7 lattice222 0 CCCI4 mesh1006 0 I8 polyline1008 0 CCCCCCCDI5 ow
ner1040 0 CCCI16 boundary_lattice222 0 CCCI13 boundary_mesh1006 0 I17 boundary_p
olyline1008 0 CCCA16 index_map_offset0 0 1 dA9 index_map82 0 A17 node_id_index_m
ap82 0 A20 schema_embedding_map82 0 A5 child12 0 A14 lowest_node_id0 0 1 dA16 me
sh_offset_data206 0 Z1 334 2 3 0 0 0 0 0 0 0 1e3 1e-8 0 4 0 1 0 3 1 5 0 6 7 8 0
 0 9 10 11 0 0 0 0 0 0 0 81 255 2 2 325 12 1 0 0 0 0 13 0 70 11 CI9 list_type0 0
 1 uI10 notransmit0 0 1 lCCCDCCDI12 finger_index0 0 1 dI12 finger_block1012 0 CZ
3 0 4 T1 0 0 3 20 1 14 14 13 255 5 330 0 1 0 15 0 0 9 15 50 255 6 212 0 1 16 0 1
7 +.1500464998344385 .025244221320103 -.002 -3846896151804405e-50 37228027275527
25e-51 -1 -1 0 3846896151804405e-50 38 12 CCCCCCCCCCCA17 intersection_data204 0
 Z7 213 0 10 18 0 0 +19 6 20 21 22 23 29 255 8 321 0 11 24 0 .150037706478962 .0
251533566468478 -.002 19 9 CCCCCCI5 frame230 0 CA5 owner12 0 Z9 329 0 1 0 0 5 0
 V0 16 255 10 208 0 ?25 0 26 7 0 0 1 18 255 11 319 0 27 0 28 8 ?1 17 255 27 0 0
 0 0 11 29 30 0 25 +18 28 316 0 31 11 32 24 ?1 17 31 0 33 25 34 28 35 26 0 36 +1
8 32 313 0 37 28 38 39 ?1 29 24 318 0 28 39 8 .159990682548152 .0241846993458288
 -.002 29 39 315 0 32 40 24 .159996869340765 -.02999868439979365 -.002 29 40 312
 0 38 41 39 .1400076058441544 -.03065401277569985 -.002 18 38 310 0 42 32 43 40
 ?1 29 41 309 0 43 44 40 .1400076058472706 -.0306540128722994 .002 18 43 307 0 4
5 38 46 41 ?1 29 44 306 0 46 47 41 .159996869345062 -.02999868453299285 .002 18
 46 304 0 48 43 49 44 ?1 29 47 303 0 49 50 44 .159999999999986 -.030095734835647
 -231884561899265e-24 18 49 301 0 51 46 52 47 ?1 29 50 300 0 52 53 47 .159999999
969991 .0242809793715011 2322039834717905e-25 18 52 298 0 54 49 55 50 ?1 29 53 2
97 0 55 56 50 .1599906825353545 .02418469921359 .002 18 55 295 0 57 52 58 53 ?1
 29 56 294 0 58 59 53 .1500377064679765 .02515335653333285 .002 18 58 292 0 29 5
5 60 56 ?1 29 59 291 0 60 61 56 .0702370148178678 -.00233338382804552 .032889330
18399425 18 60 289 0 62 58 63 59 ?1 29 61 288 0 63 64 59 .1598442893413245 -.005
05126351980382 .0249407913874485 18 63 286 0 65 60 66 61 ?1 29 64 285 0 66 67 61
 .1597559601461915 -.00715445838139597 .0247098785919812 18 66 283 0 68 63 69 64
 ?1 29 67 282 0 69 70 64 .0701581737675175 -.004264207207890345 .032702694118171
05 18 69 280 0 71 66 72 67 ?1 29 70 279 0 72 73 67 .0701581737674848 -.004264207
207889295 -.03270269411780275 18 72 277 0 74 69 75 70 ?1 29 73 276 0 75 76 70 .1
59755960159056 -.00715445838181097 -.02470987873715025 18 75 274 0 77 72 78 73 ?
1 29 76 273 0 78 79 73 .159844289316888 -.00505126427734773 -.0249407913874485 1
8 78 271 0 80 75 81 76 ?1 29 79 270 0 81 82 76 .0702370148192736 -.0023333837844
63095 -.03288933018399425 18 81 268 0 83 78 84 79 ?1 29 82 267 0 84 85 79 .06994
37117346316 -.02275223310907245 .02390263350659145 18 84 265 0 86 81 87 82 ?1 29
 85 264 0 87 88 82 .0699437117772373 -.0227522331106049 -.0239026335051274 18 87
 262 0 89 84 90 85 ?1 29 88 261 0 90 91 85 .0699125098066395 -.002 -.03293933818
40012 18 90 259 0 92 87 93 88 ?1 29 91 258 0 93 94 88 .07 -.002 -.03293173963193
095 18 93 256 0 95 90 96 91 ?1 29 94 255 0 96 97 91 .07 .002 -.0329310473261916
 18 96 253 0 98 93 99 94 ?1 29 97 252 0 99 100 94 .0699086619880232 .002 -.03293
93381840012 18 99 250 0 101 96 102 97 ?1 29 100 249 0 102 103 97 .06990227851364
19 .013 -.0303315017762062 18 102 247 0 104 99 105 100 ?1 29 103 246 0 105 106 1
00 .0951854807895991 .013 -.02758350101119755 18 105 244 0 107 102 108 103 ?1 29
 106 243 0 108 109 103 .14 .0131890110296827 -.02237912708275875 18 108 241 0 11
0 105 111 106 ?1 29 109 240 0 111 112 106 .14 .015 -.02115396337776625 18 111 23
8 0 113 108 114 109 ?1 29 112 237 0 114 115 109 .14 .015 .02115396364786015 18 1
14 235 0 116 111 117 112 ?1 29 115 234 0 117 118 112 .14 .0131890111393098 .0223
7912738873445 18 117 232 0 119 114 120 115 ?1 29 118 231 0 120 121 115 .09518547
31509984 .013 .02758350200836675 18 120 229 0 122 117 123 118 ?1 29 121 228 0 12
3 124 118 .0699022785443117 .013 .0303315017762062 18 123 226 0 125 120 126 121
 ?1 29 124 225 0 126 127 121 .0699086619562978 .002 .0329393381840012 18 126 223
 0 128 123 129 124 ?1 29 127 222 0 129 130 124 .07 .002 .03293104732335705 18 12
9 220 0 131 126 132 127 ?1 29 130 219 0 132 133 127 .07 -.002 .03293173963475715
 18 132 217 0 134 129 135 130 ?1 29 133 216 0 135 0 130 .0699125098397483 -.0019
99999999989405 .03293933818400185 18 135 214 0 136 132 0 133 ?1 17 136 0 137 134
 138 135 86 139 0 140 +15 255 137 10 0 136 15 141 17 134 0 137 131 136 132 140 1
42 0 143 +17 138 0 137 136 89 84 144 145 0 0 +17 86 0 0 0 0 84 136 139 0 138 -16
 139 14 0 ?136 142 0 146 147 148 1 17 140 0 0 0 0 135 134 142 0 0 -16 142 20 0 ?
134 149 139 150 0 0 1 16 149 26 0 ?143 151 142 152 0 0 1 38 150 25 0 142 146 152
 0 +19 153 154 155 156 157 38 146 19 0 139 0 150 0 +158 19 159 160 160 161 38 15
2 31 0 149 150 162 0 +19 163 164 165 166 167 60 255 19 211 0 15 0 168 169 +UF168
 -.002 .0056571200131064 50 153 24 0 1 158 163 170 +-.005 -.002 .033 0 -1 0 0 0
 -1 40 255 2 154 0 1 2 381537440956371e-24 4400636423571805e-21 ??.0698272733192
608 -.002 .0329467408149275 .07 -.002 .0329317396347571 41 3 CI8 term_use0 0 1 c
CZ1 155 L?.0698272733192608 -.002 .0329467408149275 41 1 156 L?.07 -.002 .032931
7396347571 204 2 17 INTERSECTION_DATA17 Intersection data7 uv_type0 0 1 u6 value
s0 1 1 fT8 157 4 .00964987141149765 0 532591850724989e-19 .0748272733192608 .009
62670187365265 .000557216184387402 682603652428851e-19 .075 51 255 158 17 0 1 16
8 153 171 +0 0 0 1 0 0 .033 0 0 -1 50 163 30 0 1 153 172 173 +.07 0 .031 -1 0 0
 0 0 1 141 255 170 150 170 170 153 50 172 36 0 1 163 174 175 +-.005 .002 .031 0
 1 0 0 0 1 141 173 152 173 173 163 50 174 76 0 1 172 176 177 +491504984860095e-3
3 .013 0 -3469446951953615e-32 -1 0 1 -3469446951953615e-32 0 141 175 162 175 17
5 172 38 162 37 0 151 152 178 0 +19 172 179 180 181 182 16 151 32 0 ?128 148 149
 162 0 0 1 38 178 44 0 183 162 184 0 +174 19 185 186 187 188 40 2 179 0 1 2 6195
36634725613e-24 683713899406135e-20 ??.07 .002 .03293104732335705 .0698195410595
623 .002 .03294742748445645 41 1 180 L?.07 .002 .03293104732335705 41 1 181 L?.0
698195410595623 .002 .03294742748445645 204 8 182 4 .990318275580709 .0005821626
49756503 .00193104732335705 .075 .990350331632177 3868008650535415e-32 .00194742
748445643 .0748195410595623 16 183 39 0 ?189 190 148 178 0 0 1 38 184 50 0 190 1
78 191 0 +176 19 192 193 194 195 40 4 185 0 1 4 .0001562100392398835 .0064161671
9134918 ??.14 .013 .02249578550510175 .12858358190611 .013 .0238225244920051 .08
28948002167106 .013 .028928873536984 .0698038519045404 .013 .0303420551303692 41
 1 186 L?.14 .013 .02249578550510175 41 1 187 L?.0698038519045404 .013 .03034205
51303692 204 16 188 4 .14 .02249578550510175 .907938018304147 .2264485308918295
 .12858358190611 .0238225244920051 .913264451211346 .189620275526795 .0828948002
167106 .028928873536984 .931223697274371 .0422309644816884 .0698038519045404 .03
03420551303692 .935575731226824 2226530724976055e-31 16 190 45 0 ?196 197 183 18
4 0 0 1 38 191 56 0 197 184 198 0 +199 19 200 201 202 203 50 176 48 0 1 174 199
 204 +.07 .013 .03050832675754095 .1153561489902378 -16675918312637e-31 .9933241
96267333 .993324196267333 0 -.1153561489902378 40 3 192 0 1 3 .00020313238456351
05 .01154467711517658 ??.14 .0131890111393098 .02237912738873445 .12860001782701
34 .01320244299321844 .023703023501378 .0951854731510116 .013 .0275835020083653
 41 1 193 L?.14 .0131890111393098 .02237912738873445 41 1 194 L?.095185473151011
6 .013 .0275835020083653 204 12 195 4 .0704704468722727 .0001890111393097925 .90
6659418822733 .2264489482458465 .0589938491856112 .000202442993218437 .911951047
452863 .189673792651816 .02535473639487725 -1214306433183764e-32 .92684830863796
9 .0818801571691332 50 199 65 0 1 176 205 206 +.14 .013 -.0223791270827589 1 -14
4560289664734e-31 0 144560289664734e-31 1 0 141 204 184 204 204 176 50 205 61 0
 1 199 207 208 +.14 .015 -.035005 .894427190999915 -.447213595499959 0 .44721359
5499959 .894427190999915 0 141 206 191 209 209 199 141 209 210 206 206 199 38 21
0 67 0 211 198 212 0 +199 19 213 214 215 216 16 211 63 0 ?217 218 219 210 0 0 1
 38 198 62 0 219 191 210 0 +19 205 220 221 222 223 38 212 73 0 218 210 224 0 +20
7 19 225 226 227 228 40 2 213 0 1 2 830233781845391e-19 .075945565363965 ??.14 .
0131890110296827 -.02237912708275875 .14 .015 -.02115396337776625 41 1 214 L?.14
 .0131890110296827 -.02237912708275875 41 1 215 L?.14 .015 -.02115396337776625 2
04 8 216 4 .000189011029682707 0 .59334075218873 .226448948266526 .002 .00122516
3704992614 .605938744008274 .2264522111163265 16 218 68 0 ?229 230 211 212 0 0 1
 38 224 78 0 230 212 231 0 +174 19 232 233 234 235 50 207 71 0 1 205 236 237 +.0
7 .013 -.03050832675754095 .115356153274359 -166759189319508e-32 -.9933241957698
11 -.993324195769811 0 -.115356153274359 40 3 225 0 1 3 .000168433970375086 .010
06268247225274 ??.0951854807895815 .013 -.0275835010111996 .1079772761291096 .01
31237056823929 -.0260979716038571 .14 .01318901102968224 -.0223791270827589 41 1
 226 L?.0951854807895815 .013 -.0275835010111996 41 1 227 L?.14 .013189011029682
24 -.0223791270827589 204 12 228 4 -.0253547440974828 752316384526264e-51 .57315
1806090467 .0818801818453014 -.03823250887357865 .0001237056823928852 .578775708
267417 .1231461823424684 -.0704704469075688 .000189011029682242 .593340752188727
 .226448948266526 50 236 84 0 1 207 238 239 +-.005 .002 -.031 0 1 0 0 0 1 141 23
7 212 237 237 207 50 238 90 0 1 236 240 241 +.07 0 -.031 1 0 0 0 0 -1 141 239 23
1 239 239 236 38 231 85 0 242 224 243 0 +19 236 244 245 246 247 16 242 80 0 ?98
 248 249 231 0 0 1 38 243 91 0 248 231 250 0 +19 238 251 252 253 254 40 2 244 0
 1 2 61953699657982e-23 683714271215662e-20 ??.0698195410585807 .002 -.032947427
4874691 .07 .002 -.0329310473261916 41 1 245 L?.0698195410585807 .002 -.03294742
74874691 41 1 246 L?.07 .002 -.0329310473261916 204 8 247 4 .509649670672012 0 -
.00194742748746908 .0748195410585807 .509681726749082 .000582162652944968 -.0019
31047326191585 .075 16 248 86 0 ?95 255 242 243 0 0 1 38 250 97 0 255 243 256 0
 +19 240 257 258 259 260 40 2 251 0 1 2 .0002426166600462465 .121381702813108 ??
.07 .002 -.0329310473261916 .07 -.002 -.03293173963193095 41 1 252 L?.07 .002 -.
0329310473261916 41 1 253 L?.07 -.002 -.03293173963193095 204 8 254 4 .509681726
749083 .000582162652944948 .001931047326191595 .002 .490373300429227 .0005572161
80766726 .00193173963193094 -.002 16 255 92 0 ?92 147 248 250 0 0 1 133 255 256
 108 0 145 250 261 0 +261 .0699437117772373 -.0227522331106049 -.023902633505127
4 .0699437117346316 -.02275223310907245 .02390263350659145 581228498579665e-19 .
134369833172543 50 240 96 0 1 238 262 263 +-.005 -.002 -.033 0 -1 0 0 0 -1 40 2
 257 0 1 2 381537671482668e-24 440063885565415e-20 ??.07 -.002 -.032931739631930
95 .0698272733203885 -.00200000000000004 -.03294674081190595 41 1 258 L?.07 -.00
2 -.03293173963193095 41 1 259 L?.0698272733203885 -.00200000000000004 -.0329467
4081190595 204 8 260 4 .490373300429227 .000557216180766694 -682603680690619e-19
 .075 .49035013089278 219675333675276e-31 -532591880940542e-19 .0748272733203885
 67 255 262 106 0 1 240 264 265 +266 0 0 1 .000921169498554866 141 263 250 263 2
63 240 50 264 113 0 1 262 267 268 +.0700626532044188 -.002260085587239315 -.0308
971453630031 .995574556335027 -.0321153082688719 .0883170977393976 -.08836267781
99698 0 .996088368152387 141 265 261 265 265 262 134 255 266 107 0 1 261 269 270
 +271 272 38 261 104 0 1 256 266 273 +19 262 274 275 276 277 38 269 114 0 278 26
6 279 0 +19 264 280 281 282 283 141 270 262 270 270 266 136 255 271 3 170 3 87 6
 TTF1 284 285 286 135 255 272 2 0 45 255 528 284 .1409825441702574 -.035 -.03500
5 .1410015551267472 -.03490794517076645 -.035005 .141007267323332 -.034811389559
1569 -.035005 .1409936028921502 -.03463080730402335 -.035005 .140974747597457 -.
0345471931244994 -.035005 .1409015341157726 -.0343306600258924 -.035005 .1408348
06101989 -.0342326204577367 -.035005 .140721481297508 -.0340929195888994 -.03500
5 .140672244360284 -.0340489335724016 -.035005 .1405898544630306 -.0339816941757
7935 -.035005 .1405560713037376 -.03395890567157535 -.035005 .1404691897708922 -
.0339042724836628 -.035005 .1404296489541116 -.03388564221647975 -.035005 .14036
3995863138 -.03385582533775685 -.035005 .1403383988945654 -.03384581334975745 -.
035005 .140270557480191 -.03382060356321135 -.035005 .1402369592034734 -.0338103
411911642 -.035005 .1401734882768152 -.03379174100115825 -.035005 .1401443789473
194 -.03378394913071705 -.035005 .140057962441613 -.03376178970835645 -.035005 .
1400015068717734 -.0337486977703105 -.035005 .1398871430905004 -.033722935996575
8 -.035005 .139829685683325 -.0337104449990499 -.035005 .1396649427389222 -.0336
745354470055 -.035005 .139567924115416 -.03365285340398065 -.035005 .13938425163
4797 -.0336101805941644 -.035005 .1392992570497182 -.03358967928148545 -.035005
 .1389001570875512 -.0334903077022493 -.035005 .1386624439338006 -.0334205989735
152 -.035005 .138129689789959 -.0332687285700122 -.035005 .137832545424745 -.033
188719141707 -.035005 .1372152974799898 -.0330309058641407 -.035005 .13689247144
43824 -.03295169232909955 -.035005 .13623992200151 -.03279434560363375 -.035005
 .1359105526519272 -.0327162914648134 -.035005 .1352666201724712 -.0325632215484
478 -.035005 .1349499786847646 -.0324878386833152 -.035005 .1340102471776454 -.0
3226432856985565 -.035005 .133397335834498 -.0321188357254319 -.035005 .13155353
27843204 -.03168648827363675 -.035005 .1303029248867616 -.0314020594945476 -.035
005 .1277920775822534 -.030843237039586 -.035005 .1265382640263468 -.03056940340
05696 -.035005 .1240359802060924 -.0300322953234249 -.035005 .12278541836274 -.0
297688389920584 -.035005 .120278290649329 -.0292513131629662 -.035005 .119022584
7014768 -.0289974142716728 -.035005 .1152521733994048 -.02825185075806535 -.0350
05 .1127352411998326 -.0277765304618331 -.035005 .1001266386629406 -.02551938112
757005 -.035005 .0899543783106429 -.02410204181576135 -.035005 .0746048011662823
 -.02291379662589335 -.035005 .069473319432675 -.02267482154646485 -.035005 .061
7705296260093 -.022595356449196 -.035005 .0592011648952569 -.02261582773068835 -
.035005 .0540646633910112 -.0227631682823714 -.035005 .0514982358629113 -.022884
8486010108 -.035005 .0463629435056305 -.02326712108650665 -.035005 .043793749523
57365 -.023528696465095 -.035005 .0386730955081406 -.02431615493437155 -.035005
 .03612618382924875 -.0248500353235938 -.035005 .03237263009793475 -.02588660255
243935 -.035005 .0311329195695219 -.0262690866820559 -.035005 .02867698675625105
 -.02710346305894375 -.035005 .02745625299281655 -.0275542691545569 -.035005 .02
56456581478228 -.0283269256941997 -.035005 .0250450854255471 -.0286005504565365
 -.035005 .0238555271294272 -.0292029844805198 -.035005 .0232660404847598 -.0295
3156552113285 -.035005 .0221189487058838 -.03027616251512335 -.035005 .021562034
12674515 -.03069095014963955 -.035005 .02077905424644065 -.03140754860379335 -.0
35005 .02052767529074125 -.03166177789421815 -.035005 .0201699849032638 -.032074
6146439644 -.035005 .0200538713697967 -.03221785439677945 -.035005 .019830861504
94295 -.03251685137315425 -.035005 .01972449749792995 -.03267163245895425 -.0350
05 .0195218256984049 -.0329993938852271 -.035005 .0194247971874497 -.03317412130
056145 -.035005 .0192506592324345 -.0335488478417997 -.035005 .01917371189403215
 -.03374603286898305 -.035005 .0190516986986443 -.0341855422671205 -.035005 .019
00765163926095 -.0344284129949974 -.035005 .01899934371345525 -.0349555359005909
 -.035005 .0190364809763612 -.0352238916247401 -.035005 .01915806951012375 -.035
6119572121746 -.035005 .0192110217821244 -.0357415213394501 -.035005 .0193341700
242969 -.03598212028761045 -.035005 .01940331580476865 -.0360928171878496 -.0350
05 .01962323671464115 -.0363986701319058 -.035005 .01978449640766815 -.036566984
0515472 -.035005 .0201147103304755 -.0368602762934658 -.035005 .0202849871027222
 -.03698487589623685 -.035005 .0206214808246757 -.0372028500094721 -.035005 .020
7868828567294 -.037296520278876 -.035005 .02128900507089755 -.03755547156264895
 -.035005 .02162292902891595 -.037692778268541 -.035005 .02228804200937715 -.037
9318898669846 -.035005 .02262108495355485 -.03803265942568085 -.035005 .02361338
480364635 -.0382972598222835 -.035005 .02427402171473485 -.03842585720887225 -.0
35005 .02558609635436415 -.03863341057153375 -.035005 .0262372217211182 -.038712
0152509741 -.035005 .02753684916768325 -.03884363655014205 -.035005 .02818482337
67956 -.0388954386753792 -.035005 .0294772203789544 -.0389821616196331 -.035005
 .0301208905519515 -.03901721499156605 -.035005 .03140818065868735 -.03907799738
777755 -.035005 .0320517743156645 -.03910311250347635 -.035005 .0352684313228444
5 -.03920556790853545 -.035005 .03783575000084925 -.03921951118761295 -.035005 .
04296823180654995 -.0391736095850154 -.035005 .0455285259621551 -.03911352778898
555 -.035005 .0506456758675742 -.0389658077842083 -.035005 .0532000941249824 -.0
388789651153226 -.035005 .0583101864682141 -.0387051289955362 -.035005 .06086402
59144626 -.0386142438132675 -.035005 .0685263597954527 -.03834792994602495 -.035
005 .0736341950110184 -.0381689874054662 -.035005 .0889590459278975 -.0376390987
447165 -.035005 .0991759975653343 -.0372865525319009 -.035005 .1119457785066486
 -.0368447372274777 -.035005 .11449902231131 -.0367563497360505 -.035005 .119608
2076542928 -.0365830626733254 -.035005 .1221614879095714 -.0364974810974285 -.03
5005 .1259894817530036 -.0363676414925596 -.035005 .1272677414137648 -.036324546
12890705 -.035005 .1298335634927172 -.03623802924961595 -.035005 .13111693002005
02 -.0361938303644333 -.035005 .1330088361636494 -.0361206032617199 -.035005 .13
36361269008354 -.03609534573944845 -.035005 .1345957436747054 -.0360579393271156
 -.035005 .1349187339247076 -.03604555005123505 -.035005 .1355749458796166 -.036
02121833480265 -.035005 .1359105384972512 -.03600946432003335 -.035005 .13658079
58572796 -.0359843003322462 -.035005 .136914259236412 -.0359708584840863 -.03500
5 .1373952931980154 -.0359472036949183 -.035005 .137552457993447 -.0359387351154
485 -.035005 .137857944264525 -.0359202107842545 -.035005 .1380074817319138 -.03
59099254722671 -.035005 .1384292275957844 -.03587770535904255 -.035005 .13867354
1283238 -.03585626582895955 -.035005 .1390751829602116 -.0358384445957482 -.0350
05 .1391604491804124 -.03583532296440305 -.035005 .1393443812009438 -.0358302439
9469815 -.035005 .1394411931500062 -.03582837405991605 -.035005 .139605371299299
2 -.03582639190083545 -.035005 .1396633799150906 -.03582578767087505 -.035005 .1
39779656949631 -.0358238113454643 -.035005 .1398375059713244 -.03582251042382275
 -.035005 .1399260555466494 -.0358186131828649 -.035005 .1399558852027384 -.0358
17003318681 -.035005 .140020505781728 -.03581211151205705 -.035005 .140054580954
742 -.03580912716708225 -.035005 .1401220943402334 -.035799594225702 -.035005 .1
4014739829359 -.0357955979571349 -.035005 .14021163490465 -.0357823485252957 -.0
35005 .1402499600712052 -.0357738126245689 -.035005 .1403342631122282 -.03574580
670878035 -.035005 .14036700736263 -.03573387723960845 -.035005 .140448390519196
8 -.0356970955115507 -.035005 .140497208836446 -.0356727227387874 -.035005 .1406
19468973704 -.0355903512647408 -.035005 .140694916067796 -.0355324512011176 -.03
5005 .140816813570322 -.03538338302265145 -.035005 .14085843784173 -.03532286738
062195 -.035005 .140932007458386 -.0351773533731044 -.035005 .1409635332137676 -
.0350920548292332 -.035005 .1409825441702574 -.035 -.035005 0 0 0 0 0 0 0 0 0 0
 0 0 0 0 0 0 0 0 127 255 89 285 1 3 2 2 2 2 2 2 2 2 2 2 2 2 2 2 2 2 2 2 2 2 2 2
 2 2 2 2 2 2 2 2 2 2 2 2 2 2 2 2 2 2 2 2 2 2 2 2 2 2 2 2 2 2 2 2 2 2 2 2 2 2 2 2
 2 2 2 2 2 2 2 2 2 2 2 2 2 2 2 2 2 2 2 2 2 3 1 0 0 128 255 89 286 -3051757812488
9e-18 0 3051757812502175e-20 610351562500435e-19 .000122070312500082 .0001831054
68750121 .0002441406250001595 .0003662109375002335 .000488281250000307 .00073242
1875000321 .000976562500000334 .00146484375000036 .001953125000000385 .002929687
50000044 .00390625000000049 .00781250000000038 .01171875000000026 .015625 .01953
125 .0234375 .03125 .046875 .0625 .078125 .09375 .125 .25 .3125 .34375 .375 .406
25 .4375 .453125 .46875 .4765625 .484375 .4921875 .496093749999998 .498046874999
998 .5 .501953124999998 .503906249999998 .505859374999998 .5078125 .508789062499
998 .509765624999998 .511718749999998 .513671874999998 .515625 .519531249999998
 .5234375 .53125 .5390625 .546875 .5546875 .5625 .59375 .625 .65625 .6875 .75 .8
75 .90625 .9375 .953125 .96875 .9765625 .980468750000001 .984375 .98828125000000
1 .990234375 .9921875 .99609375 .9970703125 .998046875 .99853515625 .9990234375
 .999267578125 .99951171875 .9996337890625 .999755859375 .99981689453125 .999877
9296875 .99993896484375 .999969482421875 1 1.000030517578124 ??16 278 109 0 ?74
 287 145 269 0 0 1 38 279 120 0 287 269 288 0 +19 267 289 290 291 292 40 2 280 0
 1 2 899733568648966e-19 .0737324864499917 ??.0702548288587657 -.001859418856499
775 -.032917792109918 .0701571057916042 -.00428876247185517 -.0326995843038633 4
1 1 281 L?.0702548288587657 -.001859418856499775 -.032917792109918 41 1 282 L?.0
701571057916042 -.00428876247185517 -.0326995843038633 204 8 283 4 .491087177080
973 .001380227350602242 -.002029723876174915 -.0004008735131446105 .479297988805
158 .001048259280443612 -.001803734546826455 .00202972387617494 16 287 115 0 ?29
3 294 278 279 0 0 1 38 288 126 0 294 279 295 0 +19 296 297 298 299 300 50 267 11
9 0 1 264 296 301 +.0703036781583341 -.0002668202735887375 -.03288933018399425 -
.0882711829467235 .002847457514410325 .996092410495577 .996096448685886 0 .08827
15408009063 40 5 289 0 1 5 349597126282055e-21 1307029809558504e-20 ??.160443289
9645895 -.00506944852911416 -.02488765748733525 .149178448531543 -.0047275476667
1387 -.0258868965305149 .1392656957958544 -.00442679016012547 -.0267661992892057
 .0996146694178453 -.003224268687259715 -.03028341023803695 .0698279384337252 -.
002320977099631175 -.03292561696180225 41 1 290 L?.1604432899645895 -.0050694485
2911416 -.02488765748733525 41 1 291 L?.0698279384337252 -.002320977099631175 -.
03292561696180225 204 20 292 4 .48699992754923 .2923063379149455 .09049406718405
38 -.00480264772553309 .487271564069018 .2559683094562405 .0791849942676169 -.00
446074547705584 .487497073517215 .2239918334380855 .069233319061556 -.0041599867
5118694 .488292529939596 .0960858472104548 .0294266028698956 -.0029574604032609
 .488799207365104 -327094845902775e-29 -.000477085739969514 -.00205416515365953
 50 296 125 0 1 267 302 303 +.159664363274571 -.00515046333143779 -.022948606566
45735 .995574556335027 -.0321153082688719 .0883170977393976 -.0883626778199698 0
 .996088368152387 141 301 279 301 301 267 50 302 131 0 1 296 304 305 +.070174712
9822903 -.004264740730947535 -.03288933018399425 .03224129401095815 .99948011433
97 -593299522165678e-30 -.9994801143397 .03224129401095815 0 141 303 288 303 303
 296 50 304 137 0 1 302 306 307 +.0700626532044188 -.002260085587239315 .0308971
453630031 .995574556335027 -.0321153082688719 -.0883170977393976 -.0883626778199
698 0 -.996088368152387 141 305 295 305 305 302 38 295 132 0 308 288 309 0 +19 3
02 310 311 312 313 16 308 127 0 ?314 315 294 295 0 0 1 38 309 138 0 315 295 316
 0 +19 304 317 318 319 320 40 4 310 0 1 4 177003927153911e-20 658645424386774e-1
9 ??.0698320859368972 -.004253688245612275 -.0327317656486847 .0831678717269612
 -.00468387488400143 -.03154274379386485 .136510820877625 -.00640461517918416 -.
0267844783411896 .160315092567059 -.00717249491110136 -.02465996907045805 41 1 3
11 L?.0698320859368972 -.004253688245612275 -.0327317656486847 41 1 312 L?.16031
5092567059 -.00717249491110136 -.02465996907045805 204 16 313 4 .479432774392194
 0 .0003428052649345495 .0001575645353095665 .478793645040761 .04301798077954385
 -.01299991721521624 .001346586390129432 .475793503479327 .215088952289655 -.066
370613025312 .00610485184280465 .474169694518984 .291875369200903 -.090187266651
4425 .00822936111353623 16 315 133 0 ?62 321 308 309 0 0 1 38 316 144 0 321 309
 322 0 +19 306 323 324 325 326 40 2 317 0 1 2 899733581139834e-19 .0737324891308
596 ??.0701571057916306 -.004288762471855155 .03269958430416065 .070254828857326
3 -.001859418901465945 .03291779211004385 41 1 318 L?.0701571057916306 -.0042887
62471855155 .03269958430416065 41 1 319 L?.0702548288573263 -.001859418901465945
 .03291779211004385 204 8 320 4 .02070202151250495 .00104825928821828 -.00180373
4547124995 -.00202972387617492 .00891282512737292 .001380227349064644 -.00202972
387617493 .000400873468155122 16 321 139 0 ?68 327 315 316 0 0 1 38 322 150 0 32
7 316 328 0 +19 329 330 331 332 333 50 306 143 0 1 304 329 334 +.070174712982290
3 -.004264740730947535 .03288933018399425 -.03224129401095815 -.9994801143397 -5
93299522165678e-30 .9994801143397 -.03224129401095815 0 40 4 323 0 1 4 176168539
848981e-20 657077246723526e-19 ??.0698320859345243 -.00425368824553573 .03273176
5649698 .083135889430966 -.00468284319703385 .0315455955823834 .1363509103437182
 -.00639945677486456 .02679874779323025 .160315092567059 -.00717249491110135 .02
4659968923026 41 1 324 L?.0698320859345243 -.00425368824553573 .032731765649698
 41 1 325 L?.160315092567059 -.00717249491110135 .024659968923026 204 16 326 4 .
02056723577103315 0 -.000342805267308733 -.000157564534296266 .0212047873244151
 .04291481376338085 .01296791828343526 -.00134373460161088 .0241962833372082 .21
4573121882107 .0662106193129684 -.00609058239076401 .0258303312460633 .291875369
1976595 .0901872666514425 -.00822936126096827 50 329 149 0 1 306 335 336 +.15966
4363274571 -.00515046333143779 .02294860656645735 .995574556335027 -.03211530826
88719 -.0883170977393976 -.0883626778199698 0 -.996088368152387 141 334 316 334
 334 306 50 335 155 0 1 329 337 338 +.0703036781583341 -.0002668202735887375 .03
288933018399425 .0882711829467235 -.002847457514410325 .996092410495577 .9960964
48685886 0 -.0882715408009063 141 336 322 336 336 329 50 337 161 0 1 335 339 340
 +.149853851444718 .0232535212929924 4464350014230345e-33 .9953500135553 -.09632
41948601904 -386486773437983e-49 .0963241948601904 .9953500135553 0 141 338 328
 338 338 335 38 328 156 0 341 322 342 0 +19 335 343 344 345 346 16 341 151 0 ?34
7 30 327 328 0 0 1 38 342 162 0 30 328 348 0 +19 337 349 350 351 352 40 5 343 0
 1 5 3496018104744385e-22 1307040119703502e-20 ??.160443289964781 -.005069447765
69485 .0248876574895006 .1491784485287704 -.00472754700092115 .02588689653266385
 .1392657114771296 -.004426790057026465 .0267661978998656 .0996147478351405 -.00
3224270840725515 .0302834032827392 .06982793843256 -.00232097714694261 .03292561
69617703 41 1 344 L?.160443289964781 -.00506944776569485 .0248876574895006 41 1
 345 L?.06982793843256 -.00232097714694261 .0329256169617703 204 20 346 4 .01300
007896753738 .292306337918868 .0904940671840538 -.0048026469621107 .012728441896
9594 .2559683094507205 .0791849942646654 -.004460744811260425 .0125029323579076
 .2239918840261265 .0692333348042577 -.00415998664808752 .01170747560322622 .096
0861001721457 .0294266815950397 -.002957462556735425 .0112007959600587 -33129484
04113975e-30 -.000477085741127377 -.00205416520097116 16 30 157 0 ?27 353 341 34
2 0 0 1 38 348 168 0 353 342 354 0 +19 339 355 356 357 358 40 2 349 0 1 2 .00036
26811450233495 .1815899217347105 ??.1500377064679765 .0251533565333329 .002 .150
037706478962 .0251533566468478 -.002 41 1 350 L?.1500377064679765 .0251533565333
329 .002 41 1 351 L?.150037706478962 .0251533566468478 -.002 204 8 352 4 .762019
80576195 .2588083651094495 .00190871071931216 .002 .737980714880038 .25880836513
9025 .001908710833357385 -.002 16 353 163 0 ?57 359 30 348 0 0 1 38 354 174 0 35
9 348 360 0 +19 361 362 363 364 365 50 339 167 0 1 337 361 366 +.150046499834438
5 .025244221320103 .002 3846896151804405e-50 -3722802727552725e-51 1 1 0 -384689
6151804405e-50 40 2 355 0 1 2 261142834542782e-21 495927571538641e-19 ??.1497929
745535662 .0251771687103229 .002 .160060876861143 .0241778659120787 .002 41 1 35
6 L?.1497929745535662 .0251771687103229 .002 41 1 357 L?.160060876861143 .024177
8659120787 .002 204 8 358 4 .762010679953289 .2580189073252575 -.000253525280872
0245 -670526097801029e-19 .762406743666278 .2911411686956065 .0100143770267046 -
.001066355408024276 50 361 173 0 1 339 367 368 +.159807351580271 .02229027934439
05 4464350014230345e-33 .9953500135553 -.0963241948601904 -386486773437983e-49 .
0963241948601904 .9953500135553 0 141 366 348 366 366 339 50 367 179 0 1 361 369
 370 +.16 0 0 1 0 0 0 0 -1 141 368 354 368 368 361 50 369 185 0 1 367 371 372 +.
159935517411964 -.0280967746069676 1007797153665206e-33 .9994801143397 .03224129
401095805 402246984354359e-33 -.03224129401095805 .9994801143397 0 141 370 360 3
70 370 367 38 360 180 0 373 354 374 0 +19 367 375 376 376 377 16 373 175 0 ?378
 379 359 360 380 380 1 38 374 186 0 379 360 381 0 +19 369 382 383 384 385 40 20
 375 0 1 20 .001736646570065725 .3977189926323135 ??.16 -.002908926160049835 .02
500827504666265 .16 .00648681459830401 .02340771226580685 .16 .01481170594877904
 .01875755436692345 .16 .02093234649623115 .01168925371519262 .16 .0240219069093
926 .00326941800407281 .16 .0237301748440299 -.0047716916198044 .16 .02113127081
18768 -.011347962341233 .16 .01607448174806435 -.01766541847692515 .16 .00866056
323297417 -.022540468620239 .16 -.000310489906754285 -.02488915622487965 .16 -.0
0976601798159929 -.02416791786721495 .16 -.01849201202137195 -.0203292507888822
 .16 -.02531808787004795 -.0138470626842382 .16 -.02931860236115245 -.0056708839
7808654 .16 -.0299170785639884 .002714344925941785 .16 -.027880746498051 .009554
38797767414 .16 -.0235571672859475 .01599219406671875 .16 -.01673484254422905 .0
2140395447224395 .16 -.00810319112063162 .0245293935888085 .16 -.002908926160049
825 .02500827504666265 41 1 376 H?.16 -.002908926160049825 .02500827504666265 20
4 80 377 4 0 .2908926624375485 -.02500827504666265 -.002908926160049835 .9420649
30649689 .29094647078492 -.02340771226580685 .00648681459830401 .883753406911377
 .290968182824402 -.01875755436692345 .01481170594877904 .826054818265095 .29096
20863813665 -.01168925371519262 .02093234649623115 .770327020463806 .29094602702
03025 -.00326941800407281 .0240219069093926 .720205643534586 .2909481538276955 .
0047716916198044 .0237301748440299 .676380499242917 .2909614075720075 .011347962
341233 .0211312708118768 .626460963645994 .2909688430759295 .01766541847692515 .
01607448174806435 .572138990451697 .2909547420618205 .022540468620239 .008660563
23297417 .515726623718417 .2909103853132425 .02488915622487965 -.000310489906754
285 .458120964884668 .2908353250053615 .02416791786721495 -.00976601798159929 .3
99946807431916 .2907374527772495 .0203292507888822 -.01849201202137195 .34199964
81624085 .290633622774795 .0138470626842382 -.02531808787004795 .285528361803121
 .290551069644079 .00567088397808654 -.02931860236115245 .2331451900177165 .2905
35536275486 -.002714344925941785 -.0299170785639884 .188860440946931 .2905839303
734255 -.00955438797767414 -.027880746498051 .1409403096805158 .2906636010028265
 -.01599219406671875 -.0235571672859475 .0875040855411693 .29075978291662 -.0214
0395447224395 -.01673484254422905 .0315795409026441 .2908506861337185 -.02452939
35888085 -.00810319112063162 199584735543918e-30 .290892662437548 -.025008275046
66265 -.002908926160049825 16 379 181 0 ?48 386 373 374 387 387 1 38 381 192 0 3
86 374 388 0 +19 371 389 390 391 392 40 2 382 0 1 2 .0003854368683697795 .193017
871107223 ??.159996869340765 -.02999868439979365 -.002 .159996869345062 -.029998
68453299285 .001999999999999945 41 1 383 L?.159996869340765 -.02999868439979365
 -.002 41 1 384 L?.159996869345062 -.02999868453299285 .001999999999999945 204 8
 385 4 .262404045899548 .290523200975164 -.001902899082772175 -.002 .23759647393
1243 .2905232009788095 -.001902899216040655 .001999999999999945 16 386 187 0 ?45
 393 379 381 0 0 1 38 388 198 0 393 381 18 0 +19 394 395 396 397 398 50 371 191
 0 1 369 394 399 +.140010397713192 -.03074056071586615 .002 -402037861915294e-33
 -129689632875896e-34 1 1 0 402037861915294e-33 40 3 389 0 1 3 3168901797298905e
-22 547606130332613e-19 ??.160120324509235 -.02999463123123595 .002 .14881216738
02724 -.0303655892044172 .002000000000000025 .1398255906159212 -.030659971955734
85 .002 41 1 390 L?.160120324509235 -.02999463123123595 .002 41 1 391 L?.1398255
906159212 -.03065997195573485 .002 204 12 392 4 .237591542482038 .29092144613030
15 .0201099267960429 .000745929484630245 .2380265086794395 .2544432882199835 .00
88017696670803 .000374971511448975 .2383496709012755 .2254541657055965 -.0001848
070972708115 805887601313393e-19 50 394 197 0 1 371 16 400 +.1399459151251702 -.
0287416004871868 999752213978119e-33 .9994801143397 .03224129401095805 402246984
354359e-33 -.03224129401095805 .9994801143397 0 141 399 381 399 399 371 50 16 20
3 0 1 394 6 401 +.140010397713192 -.03074056071586615 -.002 402037861915294e-33
 129689632875896e-34 -1 -1 0 -402037861915294e-33 141 400 388 400 400 394 141 40
1 18 401 401 16 38 18 204 0 402 388 7 0 +19 16 403 404 405 406 16 402 199 0 ?37
 387 393 18 0 0 1 40 3 403 0 1 3 284337440126198e-21 491686940315417e-19 ??.1398
255906159212 -.03065997185934325 -.002 .151133763033538 -.0302894802694591 -.002
 .160120324509235 -.02999463109765265 -.00199999999999997 41 1 404 L?.1398255906
159212 -.03065997185934325 -.002 41 1 405 L?.160120324509235 -.02999463109765265
 -.00199999999999997 204 12 406 4 .2616508505203945 .2254541657149545 .000184807
0972708115 805888565229146e-19 .2620606356817435 .2619323517563065 -.01112336532
03459 .000451080446407078 .2624089773382195 .2909214461405215 -.0201099267960429
5 .000745929618213539 17 37 0 33 407 42 32 408 402 0 409 +16 387 205 0 ?407 380
 402 374 379 379 1 16 393 193 0 ?410 402 386 388 0 0 1 17 410 0 0 0 0 43 42 393
 0 0 +17 42 0 33 37 45 38 410 393 0 408 -15 33 13 0 29 15 0 17 45 0 33 42 48 43
 411 386 0 410 +17 408 0 0 0 0 38 37 402 0 0 -17 48 0 33 45 51 46 412 379 0 411
 +17 411 0 0 0 0 46 45 386 0 0 -17 51 0 33 48 54 49 378 373 0 412 -17 412 0 0 0
 0 49 48 379 0 407 -17 407 0 33 34 37 49 409 387 0 413 +17 34 0 33 31 407 52 413
 380 0 35 -17 409 0 0 0 0 32 407 387 0 0 -17 413 0 0 0 0 49 34 380 0 0 +16 380 2
06 0 ?413 26 387 360 373 373 1 16 26 207 0 ?31 10 380 354 359 359 1 16 359 169 0
 ?54 373 353 354 26 26 1 17 54 0 33 51 57 52 414 359 0 378 +17 57 0 33 54 29 55
 415 353 0 414 +17 414 0 0 0 0 55 54 359 0 0 -17 378 0 0 0 0 52 51 373 0 34 +17
 29 0 33 57 25 58 27 30 0 415 -17 415 0 0 0 0 58 57 353 0 0 -17 25 0 33 29 31 11
 36 10 0 0 +17 36 0 0 0 0 28 25 10 0 0 -17 35 0 0 0 0 52 31 26 0 0 -14 255 15 1
 416 ?0 0 137 5 19 -0 0 0 0 5 81 1 416 334 417 15 418 0 0 0 419 80 7 CCCCCDI12 l
egal_owners0 16 1 lCZ1 417 420 421 9000 1 1 1 1 1 1 1 1 0 FFFFTFTFFFFFFFFF1 81 1
 418 6 422 15 0 416 0 0 423 82 255 1 419 275120726 80 1 422 0 424 8001 0 0 0 0 3
 5 0 0 0 FFFFTFTFFFFFFFFF2 83 255 3 423 .792156862745098 .819607843137255 .93333
3333333333 79 255 15 424 SDL/TYSA_COLOUR79 14 421 SWEntUnchanged40 2 395 0 1 2 .
00034429988846267 .172363191658362 ??.1400076058441544 -.03065401277569985 -.002
 .1400076058472706 -.0306540128722994 .00200000000000005 41 1 396 L?.14000760584
41544 -.03065401277569985 -.002 41 1 397 L?.1400076058472706 -.0306540128722994
 .00200000000000005 204 8 398 4 .261657211465737 .2260413148071785 -.00191340704
1396215 -.002 .2383433099427575 .226041314807865 -.001913407138046005 .002000000
00000005 141 372 374 372 372 369 40 2 362 0 1 2 .0003839653444665205 .1922786827
414315 ??.1599906825353545 .02418469921359 .002 .159990682548152 .02418469934582
88 -.002 41 1 363 L?.1599906825353545 .02418469921359 .002 41 1 364 L?.159990682
548152 .0241846993458288 -.002 204 8 365 4 .762403941071697 .290914735445109 .00
190327004912859 .002 .737596578746384 .2909147354809725 .00190327018198517 -.002
 17 347 0 425 71 65 60 426 341 0 0 +16 327 145 0 ?65 341 321 322 0 0 1 17 65 0 4
25 347 68 63 427 327 0 426 +15 425 12 0 71 15 33 17 68 0 425 65 71 66 428 321 0
 427 +17 427 0 0 0 0 66 65 327 0 0 -17 426 0 0 0 0 63 347 341 0 0 -17 71 0 425 6
8 347 69 62 315 0 428 -17 428 0 0 0 0 69 68 321 0 0 -17 62 0 0 0 0 60 71 315 0 3
47 +141 340 342 340 340 337 40 2 330 0 1 2 .0001165791278719312 .090457650762392
2 ??.1597548400070825 -.00717914021605362 .0247062267818969 .1598607621848195 -.
00461784539765625 .02496887866970165 41 1 331 L?.1597548400070825 -.007179140216
05362 .0247062267818969 41 1 332 L?.1598607621848195 -.00461784539765625 .024968
87866970165 204 8 333 4 .0259407736980224 .2900679277774815 -.001758739818593955
 -.00202972387617492 .01035800664170362 .2904306305675565 -.00202972387617491 .0
00532892815644247 17 314 0 0 0 0 75 429 308 0 0 +16 294 121 0 ?77 308 287 288 0
 0 1 17 77 0 141 429 80 75 430 294 0 314 +15 141 11 0 83 15 425 17 429 0 141 83
 77 72 314 308 0 0 -17 80 0 141 77 83 78 293 287 0 430 -17 430 0 0 0 0 78 77 294
 0 0 -17 83 0 141 80 429 81 74 278 0 293 -17 293 0 0 0 0 81 80 287 0 0 +17 74 0
 0 0 0 72 83 278 0 429 +141 307 309 307 307 304 40 2 297 0 1 2 .0001165790258635
212 .090457596711558 ??.159860762161901 -.00461784611372315 -.0249688786717348 .
159754840020087 -.00717914021605361 -.02470622692849355 41 1 298 L?.159860762161
901 -.00461784611372315 -.0249688786717348 41 1 299 L?.159754840020087 -.0071791
4021605361 -.02470622692849355 204 8 300 4 .489641998117521 .2904306304905755 -.
00202972387617492 -.000532892099207801 .474059252146422 .2900679278225535 -.0017
58739965766235 .00202972387617491 16 145 99 0 ?138 278 147 256 0 0 1 16 147 98 0
 ?89 145 255 146 249 139 1 17 89 0 137 138 92 87 431 147 0 144 +16 249 79 0 ?101
 242 230 146 148 147 1 17 101 0 137 98 104 99 432 249 0 433 +16 230 74 0 ?434 24
9 218 224 0 0 1 16 148 38 0 ?125 183 151 146 139 249 1 17 125 0 137 122 128 123
 435 148 0 189 +17 122 0 137 119 125 120 189 183 0 196 -17 128 0 137 125 131 126
 436 151 0 435 +17 435 0 0 0 0 126 125 148 0 0 -17 189 0 0 0 0 123 122 183 0 0 +
17 131 0 137 128 134 129 143 149 0 436 -17 436 0 0 0 0 129 128 151 0 0 -17 143 0
 0 0 0 132 131 149 0 0 +17 119 0 137 116 122 117 196 190 0 437 -17 196 0 0 0 0 1
20 119 190 0 0 +17 116 0 137 113 119 114 437 197 0 438 -17 437 0 0 0 0 117 116 1
97 0 0 +16 197 51 0 ?437 219 190 191 0 0 1 16 219 57 0 ?113 211 197 198 0 0 1 17
 113 0 137 110 116 111 438 219 0 217 +17 110 0 137 107 113 108 217 211 0 229 -17
 438 0 0 0 0 114 113 219 0 0 -17 217 0 0 0 0 111 110 211 0 0 +17 107 0 137 104 1
10 105 229 218 0 434 -17 229 0 0 0 0 108 107 218 0 0 +17 104 0 137 101 107 102 4
34 230 0 432 -17 434 0 0 0 0 105 104 230 0 0 +17 432 0 0 0 0 102 101 249 0 0 -17
 98 0 137 95 101 96 433 242 0 439 +17 433 0 0 0 0 99 98 242 0 0 -17 95 0 137 92
 98 93 439 248 0 440 +17 439 0 0 0 0 96 95 248 0 0 -17 92 0 137 89 95 90 440 255
 0 431 +17 440 0 0 0 0 93 92 255 0 0 -17 431 0 0 0 0 90 89 147 0 0 -17 144 0 0 0
 0 87 138 145 0 0 -141 273 256 273 273 261 40 13 274 0 1 13 .004125294057558025
 .380228686589826 ??.0698859473157125 -.02275016283153975 -.02390915765503505 .0
830160075776232 -.0235864290322092 -.02204286689306755 .1033023906974982 -.02615
3574588601 -.01736794431988075 .1223546442989204 -.02968067802502365 -.009069769
83514953 .1253940680411512 -.03032381647214835 -.00666243485769576 .127879755733
7424 -.03086424154009915 -.003636159571553695 .128760050995294 -.031058763382147
85 -.001480823930284404 .128874848255896 -.031084254907669 .000871298816476997 .
128278221829468 -.03095208394894925 .00286823777305892 .1263722041518716 -.03053
49503338491 .00566848031193325 .1210839725153024 -.0294178496673021 .00989670139
262426 .0995074044871629 -.0255694427287616 .0184503357778776 .0698859473142995
 -.0227501628314893 .02390915765191875 41 1 275 L?.0698859473157125 -.0227501628
3153975 -.02390915765503505 41 1 276 L?.0698859473142995 -.0227501628314893 .023
90915765191875 204 52 277 4 .378953163044138 0 .289984652006247 .011095842344964
94 .371547222606637 .04234270113196135 .236576118684246 .01296213310693242 .3476
637572204065 .107742313965509 .1534945642894235 .01763705568011925 .301215169504
905 .1691313666714615 .0747048189961892 .02593523016485045 .287597007187032 .178
9201143427895 .0620548256651441 .02834256514230425 .270501023962405 .18692376757
9365 .051721645484401 .0313688404284463 .2583467493178095 .189757737842971 .0480
676537260171 .0335241760697156 .2450887496581875 .1901272856537115 .047591322071
4255 .035876298816477 .233831962892774 .1882065988829755 .0500673573150826 .0378
732377730589 .2180229185273455 .182069830154911 .057985629862572 .04067348031193
325 .194107068834293 .1650385168813965 .0799854982325845 .0449017013926243 .1465
016530268796 .0955101698179888 .169097368659407 .0534553357778776 .1210470882502
296 920248024296516e-27 .2899846520119845 .0589141576519187 141 268 269 268 268
 264 141 241 243 241 241 238 40 3 232 0 1 3 .0002593983070465485 .00841681764582
489 ??.0698038518938068 .013 -.030342055128804 .0831005157815197 .013 -.02890650
785122155 .14 .013 -.022495785124439 41 1 233 L?.0698038518938068 .013 -.0303420
55128804 41 1 234 L?.14 .013 -.022495785124439 204 12 235 4 .0698038518938068 -.
030342055128804 .56442435578971 0 .0831005157815197 -.02890650785122155 .5688472
40768436 .04289459520209685 .14 -.022495785124439 .592062149902943 .226448530913
7655 40 7 220 0 1 7 .00189100523839039 .395480425412956 ??.14 .015 .021153963647
86015 .1433448671230844 .0216897342461689 .01362056502084944 .1449740533242954 .
02494810664859105 .00595262425503167 .1452795519346424 .0255591038692849 -.00256
3014921505815 .1443764048722086 .02375280974441705 -.00957227235205041 .14244831
8207869 .0198966364157377 -.01620536902613635 .14 .015 -.02115396337776625 41 1
 221 L?.14 .015 .02115396364786015 41 1 222 L?.14 .015 -.02115396337776625 204 2
8 223 4 .89406146349838 .226452211105744 0 .0561589636478602 .834879865062636 .2
37239396234411 .00747935026292097 .0486255650208494 .785567482450331 .2424793849
29398 .01112232135683358 .0409576242550317 .734809173350341 .2434599574509795 .0
1180543701660106 .0324419850784942 .691910123198296 .240558900111473 .0097859387
9131956 .0254327276479496 .646646783843714 .2343508840640105 .00547460594334521
 .01879963097386365 .605938744008274 .2264522111163265 -155158384577958e-32 .013
85103662223374 141 208 198 208 208 205 40 2 200 0 1 2 830233926366344e-19 .07594
55840882629 ??.14 .015 .02115396364786015 .14 .0131890111393098 .022379127388734
45 41 1 201 L?.14 .015 .02115396364786015 41 1 202 L?.14 .0131890111393098 .0223
7912738873445 204 8 203 4 .002 .04353309073061905 .89406146349838 .2264522111057
44 .000189011139309799 .0447582544714933 .906659418822733 .2264489482458465 141
 177 178 441 441 174 141 441 224 177 177 174 124 255 168 4 0 1 19 158 442 +443 4
44 141 171 146 171 171 158 141 442 19 442 442 168 126 255 443 TF3 3 54 4 6 5 51
 2 FTF9 3 445 446 447 448 449 125 255 444 0 1 0 1 0 1 0 1 2 PPBBPPBB????0 0 0 0
 45 648 445 .07 520417042793042e-32 .035 .1733333333333335 -.003333332801263485
 .02583333333333335 .2766666666666665 -.00666666560252697 .01666666666666665 .38
 -.00999999840379046 .0075 .07 -.00229074704522809 .035 .1733333333333335 -.0051
128011038426 .02583333333333335 .2766666666666665 -.00793485516245712 .016666666
66666665 .38 -.01075690922107164 .0075 .07 -.00687217819168546 .0345488974386248
5 .173333333333333 -.00867169078938074 .0255135639208028 .276666666666666 -.0104
71203387076 .01647823040298075 .38 -.0122707159847713 .00744289688515874 .07 -.0
134802909756187 .0325442653933919 .1733333333333335 -.01382961515995302 .0240902
3230064075 .276666666666667 -.01417893934428736 .0156361992078896 .38 -.01452826
35286217 .00718216611513846 .07 -.0195703451053913 .02928910637739985 .173333333
333333 -.0186323742235762 .0217705831761953 .2766666666666665 -.0176944033417611
 .0142520599749907 .38 -.016756432459946 .00673353677378609 .07 -.02401865573074
305 .02563844927607775 .173333333333333 -.0222023494368129 .01915337750456055 .2
766666666666665 -.0203860431428827 .01266830573304334 .38 -.0185697368489525 .00
618323396152613 .07 -.0270987121166066 .02223933148060235 .1733333333333335 -.02
472389134927415 .0166982209360052 .276666666666667 -.0223490705819417 .011157110
39140806 .38 -.01997424981460925 .00561599984681092 .07 -.0291484026892005 .0194
763349329725 .173333333333333 -.02643085002763165 .0146904874295093 .27666666666
6666 -.02371329736606275 .00990463992604612 .38 -.02099574470449385 .00511879242
258293 .07 -.0309166858853959 .016525318040505 .1733333333333335 -.0279357416278
4245 .0125302004521153 .276666666666667 -.024954797370289 .00853508286372555 .38
 -.02197385311273555 .00453996527533582 .07 -.03238794952204705 .013415533643848
62 .173333333333333 -.0292219686500356 .0102325491723883 .276666666666666 -.0260
5598777802415 .00704956470092796 .38 -.02289000690601265 .003866580229467625 .07
 -.0335465814160084 .0101762345836521 .1733333333333335 -.030269632895659 .00781
183221177612 .276666666666667 -.0269926843753096 .00544742983990016 .38 -.023715
73585496025 .003083027468024185 .07 -.03438290016322855 .00683917394971637 .1733
333333333335 -.0310565672504446 .00528413740291485 .276666666666667 -.0277302343
3766065 .00372910085611333 .38 -.02440390142487675 .002174064309311815 .07 -.034
8872243596562 .003436104831842445 .1733333333333335 -.03155240413532555 .0026689
734213512 .2766666666666665 -.0282175839109949 .00190184201085996 .38 -.02488276
368666425 .001134710600368714 .07 -.035 .001145373522614052 .1733333333333335 -.
0316666666666667 .000889733885254643 .2766666666666665 -.02833333333333335 .0006
34094247895232 .38 -.025 .0003784546105358215 .07 -.035 -.00114537110572351 .173
3333333333335 -.0316666666666667 -.000889732539890808 .2766666666666665 -.028333
33333333335 -.000634093974058107 .38 -.025 -.0003784554082254055 .07 -.034887224
82229885 -.003436098502198045 .1733333333333335 -.03155240427838265 -.0026689698
94027635 .2766666666666665 -.0282175837344665 -.001901841285857225 .38 -.0248827
6319055035 -.001134712677686812 .07 -.03438290202095815 -.00683916424305694 .173
3333333333335 -.0310565679316426 -.00528413187475151 .276666666666667 -.02773023
38423271 -.00372909950644608 .38 -.02440389975301155 -.00217406713814065 .07 -.0
3354658468314325 -.0101762237211275 .1733333333333335 -.0302696342333863 -.00781
18258999454 .2766666666666665 -.02699268378362935 -.00544742807876329 .38 -.0237
1573333387245 -.003083030257581185 .07 -.0323879538171816 -.01341552338082268 .1
733333333333335 -.02922197056566675 -.01023254310832456 .276666666666667 -.02605
59873141519 -.00704956283582645 .38 -.0228900040626371 -.003866582563328345 .07
 -.0309166904314008 -.01652530966655535 .1733333333333335 -.02793574377643865 -.
01253019543869562 .2766666666666665 -.0249547971214765 -.00853508121083589 .38 -
.0219738504665143 -.00453996698297616 .07 -.0291484066261121 -.01947632923464845
 .1733333333333335 -.02643085197602775 -.01469048398198052 .276666666666667 -.02
37132973259434 -.0099046387293126 .38 -.020995742675859 -.00511879347664468 .07
 -.02709871450162665 -.0222393287414248 .1733333333333335 -.02472389257035255 -.
01669821926362545 .2766666666666665 -.0223490706390785 -.0111571097858261 .38 -.
01997424870780445 -.00561600030802677 .07 -.0240186550588368 -.02563845031223745
 .1733333333333335 -.0222023491081071 -.0191533781336108 .276666666666667 -.0203
8604315737735 -.01266830595498414 .38 -.01856973720664765 -.00618323377635749 .0
7 -.0195703392653069 -.0292891107857105 .1733333333333335 -.018632371101445 -.02
17705859002862 .2766666666666665 -.01769440293758305 -.0142520610148619 .38 -.01
675643477372115 -.00673353612943759 .07 -.01348028006780386 -.0325442700770911 .
1733333333333335 -.0138296091706076 -.02409023521555155 .276666666666667 -.01417
893827341132 -.01563620035401195 .38 -.01452826737621504 -.00718216549247237 .07
 -.00687216737445114 -.0345488992891953 .1733333333333335 -.00867168477531781 -.
0255135650765128 .276666666666667 -.01047120217618448 -.0164782308638303 .38 -.0
1227071957705116 -.0074428966511478 .07 -.002290742211447035 -.035 .173333333333
3335 -.00511279841311496 -.02583333333333335 .2766666666666665 -.007934854614782
89 -.01666666666666665 .38 -.01075691081645082 -.0075 .07 .00229074704522809 -.0
35 .1733333333333335 -.00155386556282406 -.02583333333333335 .2766666666666665 -
.00539847817087621 -.01666666666666665 .38 -.00924309077892836 -.0075 .07 .00687
217819168547 -.03454889743862475 .173333333333333 .00200502412271408 -.025513563
92080275 .2766666666666665 -.00286212994625731 -.01647823040298075 .38 -.0077292
840152287 -.00744289688515874 .07 .0134802909756187 -.03254426539339205 .1733333
333333335 .00716294849328637 -.02409023230064085 .2766666666666675 .000845606010
954025 -.01563619920788965 .38 -.00547173647137831 -.00718216611513846 .07 .0195
7034510539135 -.02928910637739975 .173333333333333 .01196570755690956 -.02177058
31761952 .276666666666666 .00436107000842778 -.01425205997499064 .38 -.003243567
540054 -.00673353677378609 .07 .02401865573074305 -.02563844927607785 .173333333
3333335 .0155356827701462 -.0191533775045606 .276666666666667 .00705270980954934
 -.01266830573304336 .38 -.001430263151047516 -.00618323396152613 .07 .027098712
1166066 -.02223933148060235 .173333333333333 .0180572246826075 -.016698220936005
2 .276666666666666 .00901573724860839 -.01115711039140806 .38 -2575018539071065e
-20 -.00561599984681093 .07 .02914840268920055 -.01947633493297245 .173333333333
3335 .01976418336096495 -.01469048742950926 .2766666666666675 .0103799640327294
 -.0099046399260461 .38 .000995744704493835 -.00511879242258293 .07 .03091668588
53959 -.016525318040505 .173333333333333 .02126907496117575 -.01253020045211528
 .2766666666666665 .01162146403695564 -.00853508286372556 .38 .00197385311273553
 -.00453996527533583 .07 .03238794952204705 -.01341553364384866 .173333333333333
5 .02255530198336895 -.01023254917238832 .276666666666667 .0127226544446908 -.00
704956470092797 .38 .002890006906012685 -.00386658022946761 .07 .033546581416008
4 -.0101762345836521 .173333333333333 .02360296622899235 -.00781183221177613 .27
66666666666665 .01365935104197628 -.00544742983990016 .38 .003715735854960235 -.
0030830274680242 .07 .0343829001632285 -.00683917394971633 .1733333333333335 .02
43899005837779 -.00528413740291482 .276666666666667 .0143969010043273 -.00372910
0856113315 .38 .00440390142487669 -.00217406430931181 .07 .0348872243596562 -.00
343610483184242 .1733333333333335 .0248857374686589 -.00266897342135119 .2766666
666666665 .01488425057766156 -.001901842010859955 .38 .00488276368666425 -.00113
4710600368724 .07 .035 -.001145373522614052 .1733333333333335 .025 -.00088973388
5254642 .2766666666666665 .015 -.000634094247895231 .38 .005 -.00037845461053582
1 .07 .035 .001145371105723514 .1733333333333335 .025 .000889732539867039 .27666
66666666665 .015 .000634093974010564 .38 .005 .0003784554081540895 .07 .03488722
482229885 .003436098502198055 .173333333333333 .02488573761171605 .0026689698940
44955 .276666666666666 .01488425040113326 .00190184128589186 .38 .00488276319055
048 .001134712677738762 .07 .0343829020209582 .00683916424305695 .17333333333333
35 .0243899012649759 .00528413187474272 .276666666666667 .0143969005089936 .0037
2909950642849 .38 .004403899753011315 .00217406713811426 .07 .0335465846831432 .
01017622372112752 .173333333333333 .0236029675667198 .00781182589995025 .2766666
666666665 .01365935045029634 .00544742807877299 .38 .00371573333387291 .00308303
025759572 .07 .03238795381718155 .01341552338082268 .1733333333333335 .022555303
8989998 .01023254310832186 .276666666666667 .01272265398081798 .0070495628358210
5 .38 .002890004062636185 .003866582563320235 .07 .0309166904314008 .01652530966
655535 .173333333333333 .02126907710977255 .0125301954386971 .2766666666666665 .
01162146378814428 .00853508121083887 .38 .00197385046651601 .00453996698298063 .
07 .0291484066261121 .0194763292346484 .1733333333333335 .01976418530936 .014690
48398197972 .276666666666667 .01037996399260784 .00990463872931101 .38 .00099574
2675855714 .0051187934766423 .07 .02709871450162665 .02223932874142485 .17333333
3333333 .01805722590368795 .01669821926362585 .2766666666666665 .009015737305749
27 .01115710978582686 .38 -2575129218941685e-20 .00561600030802788 .07 .02401865
50588368 .02563845031223745 .1733333333333335 .0155356824414352 .019153378133610
6 .276666666666667 .00705270982403361 .01266830595498366 .38 -.00143026279336798
8 .00618323377635677 .07 .0195703392653068 .02928911078571045 .1733333333333335
 .01196570443478856 .0217705859002863 .2766666666666665 .00436106960427035 .0142
5206101486214 .38 -.003243565226247865 .00673353612943801 .07 .0134802800678039
 .03254427007709115 .1733333333333335 .00716294250392374 .0240902352155515 .2766
666666666665 .000845604940043576 .01563620035401185 .38 -.00547173262383659 .007
18216549247217 .07 .00687216737445111 .0345488992891953 .1733333333333335 .00200
5018108685135 .02551356507651285 .276666666666667 -.00286213115708084 .016478230
8638304 .38 -.00772928042284681 .00744289665114792 .07 .002290742211447035 .035
 .1733333333333335 -.00155386825359925 .02583333333333335 .2766666666666665 -.00
539847871864553 .01666666666666665 .38 -.00924308918369182 .0075 .07 52041704279
3042e-32 .035 .1733333333333335 -.003333332801263485 .02583333333333335 .2766666
666666665 -.00666666560252697 .01666666666666665 .38 -.00999999840379046 .0075 1
27 51 446 1 3 1 1 1 1 1 1 1 1 1 1 1 2 1 1 1 1 1 1 1 1 1 1 1 2 1 1 1 1 1 1 1 1 1
 1 1 2 1 1 1 1 1 1 1 1 1 1 1 3 1 127 2 447 4 4 128 51 448 -.0312499670291362 0 .
03125003297086375 .0625000659417275 .0937500989125912 .125000131883455 .14062514
8368887 .156250164854319 .1718751813397505 .1875001978251825 .2031252143106145 .
218750230796046 .234375247281478 .25000026376691 .265625247281478 .2812502307960
46 .2968752143106145 .3125001978251825 .3281251813397505 .343750164854319 .35937
5148368887 .375000131883455 .4062500989125915 .4375000659417275 .468750032970864
 .5 .531250032970864 .562500065941728 .593750098912591 .625000131883455 .6406251
48368887 .656250164854319 .671875181339751 .687500197825183 .703125214310614 .71
8750230796046 .734375247281478 .75000026376691 .765625247281478 .781250230796046
 .796875214310614 .812500197825183 .828125181339751 .843750164854319 .8593751483
68887 .875000131883455 .906250098912591 .937500065941728 .968750032970864 1 1.03
1250032970864 128 2 449 0 1 141 169 146 450 451 19 141 450 7 452 169 19 141 451
 150 169 453 19 141 453 152 451 454 19 141 454 162 453 455 19 141 455 178 454 45
6 19 141 456 184 455 457 19 141 457 191 456 458 19 141 458 198 457 459 19 141 45
9 210 458 460 19 141 460 212 459 461 19 141 461 224 460 462 19 141 462 231 461 4
63 19 141 463 243 462 464 19 141 464 250 463 465 19 141 465 261 464 466 19 141 4
66 269 465 467 19 141 467 279 466 468 19 141 468 288 467 469 19 141 469 295 468
 470 19 141 470 309 469 471 19 141 471 316 470 472 19 141 472 322 471 473 19 141
 473 328 472 474 19 141 474 342 473 475 19 141 475 348 474 476 19 141 476 354 47
5 477 19 141 477 360 476 478 19 141 478 374 477 479 19 141 479 381 478 480 19 14
1 480 388 479 452 19 141 452 18 480 450 19 40 2 164 0 1 2 .0002426166612995895 .
12138170279098 ??.07 .002 .03293104732335705 .07 -.002 .03293173963475715 41 1 1
65 L?.07 .002 .03293104732335705 41 1 166 L?.07 -.002 .03293173963475715 204 8 1
67 4 .990318275580709 .000582162649756503 .00193104732335705 .002 .0096267018736
5267 .000557216184387361 .00193173963475713 -.002 40 20 159 0 1 20 .001860366747
04593 .3373844074483995 ??.069911462775909 2679668137977785e-34 -.033 .069923890
2605496 -.0109231613503554 -.03113975828605775 .0699380924582114 -.0206148246407
8305 -.0257687602540317 .0699546195473691 -.0279823198165126 -.01749256349670935
 .0699667466355474 -.03219500223141465 -.00724443450651644 .069964492716223 -.03
27781062676716 .003820438391759005 .0699570854892717 -.0296661108327874 .0144541
297924426 .0699450304847469 -.02320980826259975 .02345857626569345 .069928422760
2334 -.01413670035739006 .0298186804370242 .0699139158298662 -.00346973914722181
 .0328170825980957 .0699054671809481 .00758843398286961 .03211566081661145 .0699
002309600139 .0177910725850354 .0277934837016521 .0698983588176477 .025987889857
26005 .02033788535632255 .0699009682126245 .03125485625440915 .01058933239237596
 .0699033943162975 .0329981107154597 -.00035311359399902 .0699011395747761 .0310
210985882394 -.0112557293134979 .0698981372279209 .02554670786240245 -.020889368
525474 .069899999341817 .01719214149806365 -.0281678943251099 .0699063567708731
 .00689930266763457 -.0322707239258801 .0699114627759089 857308515695679e-32 -.0
33 41 1 160 H?.0699114627759089 857308515695679e-32 -.033 204 80 161 4 0 .069911
462775909 .500013722766183 .0002844956281945455 5.94581701068462 .06992389026054
96 .4463194213817725 .0002435827114943455 5.60844870853742 .0699380924582114 .39
2621556248165 .00019324948596835 5.27108115440503 .0699546195473691 .33892364181
56655 .0001514581596542295 4.93371994910198 .0699667466355474 .2852285742743235
 .0001184218571130464 4.59635793698576 .069964492716223 .2315330041819885 985879
663017355e-19 4.25901189683686 .0699570854892717 .1778384734237815 .000133154456
2655478 3.921660320776085 .0699450304847469 .1241431911172136 .00018495305560124
85 3.584297213446665 .0699284227602334 .0704473503752794 .000229126466619919 3.2
469309645132 .0699139158298662 .0167512766515506 .000269506470396263 2.909563732
798695 .0699054671809481 .963057906633133 .000306295051709974 2.572196689773575
 .0699002309600139 .909368430313166 .0003239109797215405 2.2348314352559 .069898
3588176477 .855678969538773 .000323235602954502 1.89746415578486 .06990096821262
45 .801987967832295 .0003158261252603735 1.560095710647595 .0699033943162975 .74
8297039515969 .000309836400266171 1.222727894979946 .0699011395747761 .694606849
96477 .000317704231203035 .88535959131997 .0698981372279209 .640915737580606 .00
0322943179849935 .547991622413865 .069899999341817 .587225126094133 .00032187521
67905815 .210623618871794 .0699063567708731 .533535260450376 .000305941005635637
 259790459301721e-30 .0699114627759089 .500013722766183 .0002844956281943455 40
 2 20 0 1 2 2611421108509445e-22 49592618493739e-18 ??.160060876861143 .02417786
604570145 -.002 .1497929745535662 .02517716882445875 -.002 41 1 21 L?.1600608768
61143 .02417786604570145 -.002 41 1 22 L?.1497929745535662 .02517716882445875 -.
002 204 8 23 4 .737593776146219 .2911411686901925 -.01001437702670462 -.00106635
5274401524 .737989840708401 .2580189073193875 .0002535252808720245 -670524956442
459e-19 141 17 7 17 17 6 74 4 CI16 index_map_offset0 0 1 dCCZ20 14 3 0 0 418 2 4
16 0 0 0 0 0 0 0 0 0 0 0 0 0 0 0 0 0 80 2 12 481 482 9000 0 0 0 0 3 5 0 0 0 FFTF
TTTFFTFFFFFF3 3 84 255 12 13 Cut-Extrude979 21 482 SWIMPLICITBODYNAME_ID1 0 
